<svg xmlns="http://www.w3.org/2000/svg" xmlns:xlink="http://www.w3.org/1999/xlink">
    <g id="qrcode"><svg viewBox="0 0 41 41" width="100%" height="100%" fill="#ffffff" xmlns:xlink="http://www.w3.org/1999/xlink"><rect fill="#ffffff" width="100%" height="100%"></rect><rect fill="#000000" width="1" height="1" id="template"></rect><use x="0" y="0" xlink:href="#template"></use><use x="1" y="0" xlink:href="#template"></use><use x="2" y="0" xlink:href="#template"></use><use x="3" y="0" xlink:href="#template"></use><use x="4" y="0" xlink:href="#template"></use><use x="5" y="0" xlink:href="#template"></use><use x="6" y="0" xlink:href="#template"></use><use x="9" y="0" xlink:href="#template"></use><use x="10" y="0" xlink:href="#template"></use><use x="11" y="0" xlink:href="#template"></use><use x="12" y="0" xlink:href="#template"></use><use x="13" y="0" xlink:href="#template"></use><use x="20" y="0" xlink:href="#template"></use><use x="21" y="0" xlink:href="#template"></use><use x="22" y="0" xlink:href="#template"></use><use x="23" y="0" xlink:href="#template"></use><use x="25" y="0" xlink:href="#template"></use><use x="26" y="0" xlink:href="#template"></use><use x="27" y="0" xlink:href="#template"></use><use x="28" y="0" xlink:href="#template"></use><use x="29" y="0" xlink:href="#template"></use><use x="30" y="0" xlink:href="#template"></use><use x="34" y="0" xlink:href="#template"></use><use x="35" y="0" xlink:href="#template"></use><use x="36" y="0" xlink:href="#template"></use><use x="37" y="0" xlink:href="#template"></use><use x="38" y="0" xlink:href="#template"></use><use x="39" y="0" xlink:href="#template"></use><use x="40" y="0" xlink:href="#template"></use><use x="0" y="1" xlink:href="#template"></use><use x="6" y="1" xlink:href="#template"></use><use x="8" y="1" xlink:href="#template"></use><use x="11" y="1" xlink:href="#template"></use><use x="12" y="1" xlink:href="#template"></use><use x="13" y="1" xlink:href="#template"></use><use x="15" y="1" xlink:href="#template"></use><use x="18" y="1" xlink:href="#template"></use><use x="21" y="1" xlink:href="#template"></use><use x="22" y="1" xlink:href="#template"></use><use x="23" y="1" xlink:href="#template"></use><use x="24" y="1" xlink:href="#template"></use><use x="25" y="1" xlink:href="#template"></use><use x="26" y="1" xlink:href="#template"></use><use x="29" y="1" xlink:href="#template"></use><use x="31" y="1" xlink:href="#template"></use><use x="32" y="1" xlink:href="#template"></use><use x="34" y="1" xlink:href="#template"></use><use x="40" y="1" xlink:href="#template"></use><use x="0" y="2" xlink:href="#template"></use><use x="2" y="2" xlink:href="#template"></use><use x="3" y="2" xlink:href="#template"></use><use x="4" y="2" xlink:href="#template"></use><use x="6" y="2" xlink:href="#template"></use><use x="9" y="2" xlink:href="#template"></use><use x="10" y="2" xlink:href="#template"></use><use x="11" y="2" xlink:href="#template"></use><use x="12" y="2" xlink:href="#template"></use><use x="13" y="2" xlink:href="#template"></use><use x="15" y="2" xlink:href="#template"></use><use x="16" y="2" xlink:href="#template"></use><use x="20" y="2" xlink:href="#template"></use><use x="23" y="2" xlink:href="#template"></use><use x="24" y="2" xlink:href="#template"></use><use x="26" y="2" xlink:href="#template"></use><use x="28" y="2" xlink:href="#template"></use><use x="31" y="2" xlink:href="#template"></use><use x="34" y="2" xlink:href="#template"></use><use x="36" y="2" xlink:href="#template"></use><use x="37" y="2" xlink:href="#template"></use><use x="38" y="2" xlink:href="#template"></use><use x="40" y="2" xlink:href="#template"></use><use x="0" y="3" xlink:href="#template"></use><use x="2" y="3" xlink:href="#template"></use><use x="3" y="3" xlink:href="#template"></use><use x="4" y="3" xlink:href="#template"></use><use x="6" y="3" xlink:href="#template"></use><use x="9" y="3" xlink:href="#template"></use><use x="12" y="3" xlink:href="#template"></use><use x="14" y="3" xlink:href="#template"></use><use x="16" y="3" xlink:href="#template"></use><use x="17" y="3" xlink:href="#template"></use><use x="18" y="3" xlink:href="#template"></use><use x="19" y="3" xlink:href="#template"></use><use x="22" y="3" xlink:href="#template"></use><use x="27" y="3" xlink:href="#template"></use><use x="28" y="3" xlink:href="#template"></use><use x="29" y="3" xlink:href="#template"></use><use x="30" y="3" xlink:href="#template"></use><use x="34" y="3" xlink:href="#template"></use><use x="36" y="3" xlink:href="#template"></use><use x="37" y="3" xlink:href="#template"></use><use x="38" y="3" xlink:href="#template"></use><use x="40" y="3" xlink:href="#template"></use><use x="0" y="4" xlink:href="#template"></use><use x="2" y="4" xlink:href="#template"></use><use x="3" y="4" xlink:href="#template"></use><use x="4" y="4" xlink:href="#template"></use><use x="6" y="4" xlink:href="#template"></use><use x="11" y="4" xlink:href="#template"></use><use x="12" y="4" xlink:href="#template"></use><use x="14" y="4" xlink:href="#template"></use><use x="15" y="4" xlink:href="#template"></use><use x="16" y="4" xlink:href="#template"></use><use x="17" y="4" xlink:href="#template"></use><use x="19" y="4" xlink:href="#template"></use><use x="20" y="4" xlink:href="#template"></use><use x="23" y="4" xlink:href="#template"></use><use x="27" y="4" xlink:href="#template"></use><use x="28" y="4" xlink:href="#template"></use><use x="30" y="4" xlink:href="#template"></use><use x="34" y="4" xlink:href="#template"></use><use x="36" y="4" xlink:href="#template"></use><use x="37" y="4" xlink:href="#template"></use><use x="38" y="4" xlink:href="#template"></use><use x="40" y="4" xlink:href="#template"></use><use x="0" y="5" xlink:href="#template"></use><use x="6" y="5" xlink:href="#template"></use><use x="8" y="5" xlink:href="#template"></use><use x="9" y="5" xlink:href="#template"></use><use x="11" y="5" xlink:href="#template"></use><use x="14" y="5" xlink:href="#template"></use><use x="15" y="5" xlink:href="#template"></use><use x="16" y="5" xlink:href="#template"></use><use x="19" y="5" xlink:href="#template"></use><use x="20" y="5" xlink:href="#template"></use><use x="22" y="5" xlink:href="#template"></use><use x="23" y="5" xlink:href="#template"></use><use x="24" y="5" xlink:href="#template"></use><use x="25" y="5" xlink:href="#template"></use><use x="26" y="5" xlink:href="#template"></use><use x="28" y="5" xlink:href="#template"></use><use x="29" y="5" xlink:href="#template"></use><use x="31" y="5" xlink:href="#template"></use><use x="34" y="5" xlink:href="#template"></use><use x="40" y="5" xlink:href="#template"></use><use x="0" y="6" xlink:href="#template"></use><use x="1" y="6" xlink:href="#template"></use><use x="2" y="6" xlink:href="#template"></use><use x="3" y="6" xlink:href="#template"></use><use x="4" y="6" xlink:href="#template"></use><use x="5" y="6" xlink:href="#template"></use><use x="6" y="6" xlink:href="#template"></use><use x="8" y="6" xlink:href="#template"></use><use x="10" y="6" xlink:href="#template"></use><use x="12" y="6" xlink:href="#template"></use><use x="14" y="6" xlink:href="#template"></use><use x="16" y="6" xlink:href="#template"></use><use x="18" y="6" xlink:href="#template"></use><use x="20" y="6" xlink:href="#template"></use><use x="22" y="6" xlink:href="#template"></use><use x="24" y="6" xlink:href="#template"></use><use x="26" y="6" xlink:href="#template"></use><use x="28" y="6" xlink:href="#template"></use><use x="30" y="6" xlink:href="#template"></use><use x="32" y="6" xlink:href="#template"></use><use x="34" y="6" xlink:href="#template"></use><use x="35" y="6" xlink:href="#template"></use><use x="36" y="6" xlink:href="#template"></use><use x="37" y="6" xlink:href="#template"></use><use x="38" y="6" xlink:href="#template"></use><use x="39" y="6" xlink:href="#template"></use><use x="40" y="6" xlink:href="#template"></use><use x="8" y="7" xlink:href="#template"></use><use x="11" y="7" xlink:href="#template"></use><use x="12" y="7" xlink:href="#template"></use><use x="13" y="7" xlink:href="#template"></use><use x="15" y="7" xlink:href="#template"></use><use x="16" y="7" xlink:href="#template"></use><use x="17" y="7" xlink:href="#template"></use><use x="21" y="7" xlink:href="#template"></use><use x="24" y="7" xlink:href="#template"></use><use x="26" y="7" xlink:href="#template"></use><use x="29" y="7" xlink:href="#template"></use><use x="30" y="7" xlink:href="#template"></use><use x="31" y="7" xlink:href="#template"></use><use x="32" y="7" xlink:href="#template"></use><use x="4" y="8" xlink:href="#template"></use><use x="5" y="8" xlink:href="#template"></use><use x="6" y="8" xlink:href="#template"></use><use x="7" y="8" xlink:href="#template"></use><use x="9" y="8" xlink:href="#template"></use><use x="11" y="8" xlink:href="#template"></use><use x="12" y="8" xlink:href="#template"></use><use x="18" y="8" xlink:href="#template"></use><use x="20" y="8" xlink:href="#template"></use><use x="21" y="8" xlink:href="#template"></use><use x="22" y="8" xlink:href="#template"></use><use x="23" y="8" xlink:href="#template"></use><use x="24" y="8" xlink:href="#template"></use><use x="27" y="8" xlink:href="#template"></use><use x="29" y="8" xlink:href="#template"></use><use x="34" y="8" xlink:href="#template"></use><use x="35" y="8" xlink:href="#template"></use><use x="39" y="8" xlink:href="#template"></use><use x="0" y="9" xlink:href="#template"></use><use x="3" y="9" xlink:href="#template"></use><use x="4" y="9" xlink:href="#template"></use><use x="9" y="9" xlink:href="#template"></use><use x="10" y="9" xlink:href="#template"></use><use x="17" y="9" xlink:href="#template"></use><use x="18" y="9" xlink:href="#template"></use><use x="19" y="9" xlink:href="#template"></use><use x="22" y="9" xlink:href="#template"></use><use x="24" y="9" xlink:href="#template"></use><use x="26" y="9" xlink:href="#template"></use><use x="27" y="9" xlink:href="#template"></use><use x="28" y="9" xlink:href="#template"></use><use x="29" y="9" xlink:href="#template"></use><use x="34" y="9" xlink:href="#template"></use><use x="36" y="9" xlink:href="#template"></use><use x="37" y="9" xlink:href="#template"></use><use x="4" y="10" xlink:href="#template"></use><use x="5" y="10" xlink:href="#template"></use><use x="6" y="10" xlink:href="#template"></use><use x="7" y="10" xlink:href="#template"></use><use x="8" y="10" xlink:href="#template"></use><use x="10" y="10" xlink:href="#template"></use><use x="12" y="10" xlink:href="#template"></use><use x="14" y="10" xlink:href="#template"></use><use x="15" y="10" xlink:href="#template"></use><use x="16" y="10" xlink:href="#template"></use><use x="17" y="10" xlink:href="#template"></use><use x="18" y="10" xlink:href="#template"></use><use x="22" y="10" xlink:href="#template"></use><use x="23" y="10" xlink:href="#template"></use><use x="24" y="10" xlink:href="#template"></use><use x="26" y="10" xlink:href="#template"></use><use x="27" y="10" xlink:href="#template"></use><use x="28" y="10" xlink:href="#template"></use><use x="29" y="10" xlink:href="#template"></use><use x="30" y="10" xlink:href="#template"></use><use x="32" y="10" xlink:href="#template"></use><use x="36" y="10" xlink:href="#template"></use><use x="0" y="11" xlink:href="#template"></use><use x="2" y="11" xlink:href="#template"></use><use x="4" y="11" xlink:href="#template"></use><use x="8" y="11" xlink:href="#template"></use><use x="11" y="11" xlink:href="#template"></use><use x="13" y="11" xlink:href="#template"></use><use x="15" y="11" xlink:href="#template"></use><use x="18" y="11" xlink:href="#template"></use><use x="19" y="11" xlink:href="#template"></use><use x="22" y="11" xlink:href="#template"></use><use x="25" y="11" xlink:href="#template"></use><use x="27" y="11" xlink:href="#template"></use><use x="29" y="11" xlink:href="#template"></use><use x="30" y="11" xlink:href="#template"></use><use x="31" y="11" xlink:href="#template"></use><use x="32" y="11" xlink:href="#template"></use><use x="33" y="11" xlink:href="#template"></use><use x="36" y="11" xlink:href="#template"></use><use x="37" y="11" xlink:href="#template"></use><use x="39" y="11" xlink:href="#template"></use><use x="2" y="12" xlink:href="#template"></use><use x="4" y="12" xlink:href="#template"></use><use x="5" y="12" xlink:href="#template"></use><use x="6" y="12" xlink:href="#template"></use><use x="7" y="12" xlink:href="#template"></use><use x="8" y="12" xlink:href="#template"></use><use x="9" y="12" xlink:href="#template"></use><use x="12" y="12" xlink:href="#template"></use><use x="13" y="12" xlink:href="#template"></use><use x="17" y="12" xlink:href="#template"></use><use x="19" y="12" xlink:href="#template"></use><use x="21" y="12" xlink:href="#template"></use><use x="23" y="12" xlink:href="#template"></use><use x="25" y="12" xlink:href="#template"></use><use x="27" y="12" xlink:href="#template"></use><use x="29" y="12" xlink:href="#template"></use><use x="30" y="12" xlink:href="#template"></use><use x="33" y="12" xlink:href="#template"></use><use x="34" y="12" xlink:href="#template"></use><use x="39" y="12" xlink:href="#template"></use><use x="40" y="12" xlink:href="#template"></use><use x="1" y="13" xlink:href="#template"></use><use x="5" y="13" xlink:href="#template"></use><use x="7" y="13" xlink:href="#template"></use><use x="8" y="13" xlink:href="#template"></use><use x="9" y="13" xlink:href="#template"></use><use x="10" y="13" xlink:href="#template"></use><use x="12" y="13" xlink:href="#template"></use><use x="17" y="13" xlink:href="#template"></use><use x="18" y="13" xlink:href="#template"></use><use x="20" y="13" xlink:href="#template"></use><use x="21" y="13" xlink:href="#template"></use><use x="22" y="13" xlink:href="#template"></use><use x="24" y="13" xlink:href="#template"></use><use x="26" y="13" xlink:href="#template"></use><use x="28" y="13" xlink:href="#template"></use><use x="30" y="13" xlink:href="#template"></use><use x="31" y="13" xlink:href="#template"></use><use x="32" y="13" xlink:href="#template"></use><use x="35" y="13" xlink:href="#template"></use><use x="36" y="13" xlink:href="#template"></use><use x="37" y="13" xlink:href="#template"></use><use x="39" y="13" xlink:href="#template"></use><use x="40" y="13" xlink:href="#template"></use><use x="2" y="14" xlink:href="#template"></use><use x="5" y="14" xlink:href="#template"></use><use x="6" y="14" xlink:href="#template"></use><use x="13" y="14" xlink:href="#template"></use><use x="14" y="14" xlink:href="#template"></use><use x="16" y="14" xlink:href="#template"></use><use x="18" y="14" xlink:href="#template"></use><use x="19" y="14" xlink:href="#template"></use><use x="21" y="14" xlink:href="#template"></use><use x="23" y="14" xlink:href="#template"></use><use x="25" y="14" xlink:href="#template"></use><use x="28" y="14" xlink:href="#template"></use><use x="32" y="14" xlink:href="#template"></use><use x="33" y="14" xlink:href="#template"></use><use x="34" y="14" xlink:href="#template"></use><use x="37" y="14" xlink:href="#template"></use><use x="38" y="14" xlink:href="#template"></use><use x="40" y="14" xlink:href="#template"></use><use x="0" y="15" xlink:href="#template"></use><use x="9" y="15" xlink:href="#template"></use><use x="13" y="15" xlink:href="#template"></use><use x="19" y="15" xlink:href="#template"></use><use x="24" y="15" xlink:href="#template"></use><use x="26" y="15" xlink:href="#template"></use><use x="29" y="15" xlink:href="#template"></use><use x="30" y="15" xlink:href="#template"></use><use x="35" y="15" xlink:href="#template"></use><use x="36" y="15" xlink:href="#template"></use><use x="37" y="15" xlink:href="#template"></use><use x="40" y="15" xlink:href="#template"></use><use x="6" y="16" xlink:href="#template"></use><use x="11" y="16" xlink:href="#template"></use><use x="13" y="16" xlink:href="#template"></use><use x="14" y="16" xlink:href="#template"></use><use x="15" y="16" xlink:href="#template"></use><use x="17" y="16" xlink:href="#template"></use><use x="18" y="16" xlink:href="#template"></use><use x="19" y="16" xlink:href="#template"></use><use x="20" y="16" xlink:href="#template"></use><use x="21" y="16" xlink:href="#template"></use><use x="22" y="16" xlink:href="#template"></use><use x="25" y="16" xlink:href="#template"></use><use x="27" y="16" xlink:href="#template"></use><use x="28" y="16" xlink:href="#template"></use><use x="29" y="16" xlink:href="#template"></use><use x="31" y="16" xlink:href="#template"></use><use x="35" y="16" xlink:href="#template"></use><use x="37" y="16" xlink:href="#template"></use><use x="0" y="17" xlink:href="#template"></use><use x="4" y="17" xlink:href="#template"></use><use x="9" y="17" xlink:href="#template"></use><use x="11" y="17" xlink:href="#template"></use><use x="13" y="17" xlink:href="#template"></use><use x="16" y="17" xlink:href="#template"></use><use x="17" y="17" xlink:href="#template"></use><use x="18" y="17" xlink:href="#template"></use><use x="19" y="17" xlink:href="#template"></use><use x="22" y="17" xlink:href="#template"></use><use x="23" y="17" xlink:href="#template"></use><use x="24" y="17" xlink:href="#template"></use><use x="25" y="17" xlink:href="#template"></use><use x="27" y="17" xlink:href="#template"></use><use x="28" y="17" xlink:href="#template"></use><use x="30" y="17" xlink:href="#template"></use><use x="33" y="17" xlink:href="#template"></use><use x="34" y="17" xlink:href="#template"></use><use x="35" y="17" xlink:href="#template"></use><use x="36" y="17" xlink:href="#template"></use><use x="38" y="17" xlink:href="#template"></use><use x="40" y="17" xlink:href="#template"></use><use x="3" y="18" xlink:href="#template"></use><use x="5" y="18" xlink:href="#template"></use><use x="6" y="18" xlink:href="#template"></use><use x="8" y="18" xlink:href="#template"></use><use x="10" y="18" xlink:href="#template"></use><use x="11" y="18" xlink:href="#template"></use><use x="13" y="18" xlink:href="#template"></use><use x="14" y="18" xlink:href="#template"></use><use x="15" y="18" xlink:href="#template"></use><use x="16" y="18" xlink:href="#template"></use><use x="17" y="18" xlink:href="#template"></use><use x="20" y="18" xlink:href="#template"></use><use x="21" y="18" xlink:href="#template"></use><use x="23" y="18" xlink:href="#template"></use><use x="25" y="18" xlink:href="#template"></use><use x="26" y="18" xlink:href="#template"></use><use x="27" y="18" xlink:href="#template"></use><use x="29" y="18" xlink:href="#template"></use><use x="32" y="18" xlink:href="#template"></use><use x="35" y="18" xlink:href="#template"></use><use x="40" y="18" xlink:href="#template"></use><use x="1" y="19" xlink:href="#template"></use><use x="2" y="19" xlink:href="#template"></use><use x="4" y="19" xlink:href="#template"></use><use x="5" y="19" xlink:href="#template"></use><use x="16" y="19" xlink:href="#template"></use><use x="18" y="19" xlink:href="#template"></use><use x="20" y="19" xlink:href="#template"></use><use x="22" y="19" xlink:href="#template"></use><use x="23" y="19" xlink:href="#template"></use><use x="25" y="19" xlink:href="#template"></use><use x="29" y="19" xlink:href="#template"></use><use x="30" y="19" xlink:href="#template"></use><use x="33" y="19" xlink:href="#template"></use><use x="35" y="19" xlink:href="#template"></use><use x="37" y="19" xlink:href="#template"></use><use x="39" y="19" xlink:href="#template"></use><use x="0" y="20" xlink:href="#template"></use><use x="2" y="20" xlink:href="#template"></use><use x="4" y="20" xlink:href="#template"></use><use x="6" y="20" xlink:href="#template"></use><use x="7" y="20" xlink:href="#template"></use><use x="8" y="20" xlink:href="#template"></use><use x="13" y="20" xlink:href="#template"></use><use x="14" y="20" xlink:href="#template"></use><use x="15" y="20" xlink:href="#template"></use><use x="16" y="20" xlink:href="#template"></use><use x="18" y="20" xlink:href="#template"></use><use x="19" y="20" xlink:href="#template"></use><use x="20" y="20" xlink:href="#template"></use><use x="21" y="20" xlink:href="#template"></use><use x="23" y="20" xlink:href="#template"></use><use x="27" y="20" xlink:href="#template"></use><use x="30" y="20" xlink:href="#template"></use><use x="31" y="20" xlink:href="#template"></use><use x="32" y="20" xlink:href="#template"></use><use x="35" y="20" xlink:href="#template"></use><use x="36" y="20" xlink:href="#template"></use><use x="39" y="20" xlink:href="#template"></use><use x="40" y="20" xlink:href="#template"></use><use x="2" y="21" xlink:href="#template"></use><use x="3" y="21" xlink:href="#template"></use><use x="4" y="21" xlink:href="#template"></use><use x="5" y="21" xlink:href="#template"></use><use x="7" y="21" xlink:href="#template"></use><use x="8" y="21" xlink:href="#template"></use><use x="9" y="21" xlink:href="#template"></use><use x="14" y="21" xlink:href="#template"></use><use x="15" y="21" xlink:href="#template"></use><use x="16" y="21" xlink:href="#template"></use><use x="17" y="21" xlink:href="#template"></use><use x="19" y="21" xlink:href="#template"></use><use x="21" y="21" xlink:href="#template"></use><use x="23" y="21" xlink:href="#template"></use><use x="26" y="21" xlink:href="#template"></use><use x="27" y="21" xlink:href="#template"></use><use x="34" y="21" xlink:href="#template"></use><use x="36" y="21" xlink:href="#template"></use><use x="37" y="21" xlink:href="#template"></use><use x="38" y="21" xlink:href="#template"></use><use x="40" y="21" xlink:href="#template"></use><use x="0" y="22" xlink:href="#template"></use><use x="1" y="22" xlink:href="#template"></use><use x="3" y="22" xlink:href="#template"></use><use x="4" y="22" xlink:href="#template"></use><use x="5" y="22" xlink:href="#template"></use><use x="6" y="22" xlink:href="#template"></use><use x="7" y="22" xlink:href="#template"></use><use x="9" y="22" xlink:href="#template"></use><use x="11" y="22" xlink:href="#template"></use><use x="12" y="22" xlink:href="#template"></use><use x="13" y="22" xlink:href="#template"></use><use x="16" y="22" xlink:href="#template"></use><use x="19" y="22" xlink:href="#template"></use><use x="23" y="22" xlink:href="#template"></use><use x="25" y="22" xlink:href="#template"></use><use x="26" y="22" xlink:href="#template"></use><use x="27" y="22" xlink:href="#template"></use><use x="28" y="22" xlink:href="#template"></use><use x="30" y="22" xlink:href="#template"></use><use x="32" y="22" xlink:href="#template"></use><use x="37" y="22" xlink:href="#template"></use><use x="40" y="22" xlink:href="#template"></use><use x="1" y="23" xlink:href="#template"></use><use x="4" y="23" xlink:href="#template"></use><use x="5" y="23" xlink:href="#template"></use><use x="7" y="23" xlink:href="#template"></use><use x="9" y="23" xlink:href="#template"></use><use x="11" y="23" xlink:href="#template"></use><use x="13" y="23" xlink:href="#template"></use><use x="15" y="23" xlink:href="#template"></use><use x="16" y="23" xlink:href="#template"></use><use x="18" y="23" xlink:href="#template"></use><use x="19" y="23" xlink:href="#template"></use><use x="20" y="23" xlink:href="#template"></use><use x="24" y="23" xlink:href="#template"></use><use x="26" y="23" xlink:href="#template"></use><use x="29" y="23" xlink:href="#template"></use><use x="30" y="23" xlink:href="#template"></use><use x="31" y="23" xlink:href="#template"></use><use x="34" y="23" xlink:href="#template"></use><use x="35" y="23" xlink:href="#template"></use><use x="39" y="23" xlink:href="#template"></use><use x="40" y="23" xlink:href="#template"></use><use x="1" y="24" xlink:href="#template"></use><use x="3" y="24" xlink:href="#template"></use><use x="4" y="24" xlink:href="#template"></use><use x="5" y="24" xlink:href="#template"></use><use x="6" y="24" xlink:href="#template"></use><use x="8" y="24" xlink:href="#template"></use><use x="13" y="24" xlink:href="#template"></use><use x="14" y="24" xlink:href="#template"></use><use x="15" y="24" xlink:href="#template"></use><use x="22" y="24" xlink:href="#template"></use><use x="24" y="24" xlink:href="#template"></use><use x="25" y="24" xlink:href="#template"></use><use x="27" y="24" xlink:href="#template"></use><use x="29" y="24" xlink:href="#template"></use><use x="31" y="24" xlink:href="#template"></use><use x="32" y="24" xlink:href="#template"></use><use x="33" y="24" xlink:href="#template"></use><use x="38" y="24" xlink:href="#template"></use><use x="39" y="24" xlink:href="#template"></use><use x="40" y="24" xlink:href="#template"></use><use x="2" y="25" xlink:href="#template"></use><use x="3" y="25" xlink:href="#template"></use><use x="7" y="25" xlink:href="#template"></use><use x="8" y="25" xlink:href="#template"></use><use x="12" y="25" xlink:href="#template"></use><use x="16" y="25" xlink:href="#template"></use><use x="17" y="25" xlink:href="#template"></use><use x="18" y="25" xlink:href="#template"></use><use x="22" y="25" xlink:href="#template"></use><use x="23" y="25" xlink:href="#template"></use><use x="24" y="25" xlink:href="#template"></use><use x="27" y="25" xlink:href="#template"></use><use x="28" y="25" xlink:href="#template"></use><use x="29" y="25" xlink:href="#template"></use><use x="32" y="25" xlink:href="#template"></use><use x="34" y="25" xlink:href="#template"></use><use x="35" y="25" xlink:href="#template"></use><use x="36" y="25" xlink:href="#template"></use><use x="38" y="25" xlink:href="#template"></use><use x="1" y="26" xlink:href="#template"></use><use x="5" y="26" xlink:href="#template"></use><use x="6" y="26" xlink:href="#template"></use><use x="7" y="26" xlink:href="#template"></use><use x="11" y="26" xlink:href="#template"></use><use x="13" y="26" xlink:href="#template"></use><use x="16" y="26" xlink:href="#template"></use><use x="18" y="26" xlink:href="#template"></use><use x="25" y="26" xlink:href="#template"></use><use x="26" y="26" xlink:href="#template"></use><use x="27" y="26" xlink:href="#template"></use><use x="28" y="26" xlink:href="#template"></use><use x="30" y="26" xlink:href="#template"></use><use x="32" y="26" xlink:href="#template"></use><use x="33" y="26" xlink:href="#template"></use><use x="34" y="26" xlink:href="#template"></use><use x="39" y="26" xlink:href="#template"></use><use x="40" y="26" xlink:href="#template"></use><use x="2" y="27" xlink:href="#template"></use><use x="7" y="27" xlink:href="#template"></use><use x="8" y="27" xlink:href="#template"></use><use x="14" y="27" xlink:href="#template"></use><use x="17" y="27" xlink:href="#template"></use><use x="20" y="27" xlink:href="#template"></use><use x="23" y="27" xlink:href="#template"></use><use x="24" y="27" xlink:href="#template"></use><use x="29" y="27" xlink:href="#template"></use><use x="30" y="27" xlink:href="#template"></use><use x="31" y="27" xlink:href="#template"></use><use x="32" y="27" xlink:href="#template"></use><use x="34" y="27" xlink:href="#template"></use><use x="37" y="27" xlink:href="#template"></use><use x="40" y="27" xlink:href="#template"></use><use x="2" y="28" xlink:href="#template"></use><use x="5" y="28" xlink:href="#template"></use><use x="6" y="28" xlink:href="#template"></use><use x="8" y="28" xlink:href="#template"></use><use x="12" y="28" xlink:href="#template"></use><use x="17" y="28" xlink:href="#template"></use><use x="18" y="28" xlink:href="#template"></use><use x="20" y="28" xlink:href="#template"></use><use x="21" y="28" xlink:href="#template"></use><use x="26" y="28" xlink:href="#template"></use><use x="27" y="28" xlink:href="#template"></use><use x="28" y="28" xlink:href="#template"></use><use x="29" y="28" xlink:href="#template"></use><use x="32" y="28" xlink:href="#template"></use><use x="40" y="28" xlink:href="#template"></use><use x="0" y="29" xlink:href="#template"></use><use x="1" y="29" xlink:href="#template"></use><use x="2" y="29" xlink:href="#template"></use><use x="3" y="29" xlink:href="#template"></use><use x="8" y="29" xlink:href="#template"></use><use x="10" y="29" xlink:href="#template"></use><use x="11" y="29" xlink:href="#template"></use><use x="15" y="29" xlink:href="#template"></use><use x="20" y="29" xlink:href="#template"></use><use x="21" y="29" xlink:href="#template"></use><use x="22" y="29" xlink:href="#template"></use><use x="26" y="29" xlink:href="#template"></use><use x="29" y="29" xlink:href="#template"></use><use x="30" y="29" xlink:href="#template"></use><use x="31" y="29" xlink:href="#template"></use><use x="33" y="29" xlink:href="#template"></use><use x="35" y="29" xlink:href="#template"></use><use x="36" y="29" xlink:href="#template"></use><use x="38" y="29" xlink:href="#template"></use><use x="40" y="29" xlink:href="#template"></use><use x="2" y="30" xlink:href="#template"></use><use x="3" y="30" xlink:href="#template"></use><use x="6" y="30" xlink:href="#template"></use><use x="8" y="30" xlink:href="#template"></use><use x="10" y="30" xlink:href="#template"></use><use x="11" y="30" xlink:href="#template"></use><use x="13" y="30" xlink:href="#template"></use><use x="14" y="30" xlink:href="#template"></use><use x="16" y="30" xlink:href="#template"></use><use x="18" y="30" xlink:href="#template"></use><use x="21" y="30" xlink:href="#template"></use><use x="23" y="30" xlink:href="#template"></use><use x="24" y="30" xlink:href="#template"></use><use x="27" y="30" xlink:href="#template"></use><use x="29" y="30" xlink:href="#template"></use><use x="31" y="30" xlink:href="#template"></use><use x="33" y="30" xlink:href="#template"></use><use x="35" y="30" xlink:href="#template"></use><use x="37" y="30" xlink:href="#template"></use><use x="40" y="30" xlink:href="#template"></use><use x="3" y="31" xlink:href="#template"></use><use x="7" y="31" xlink:href="#template"></use><use x="10" y="31" xlink:href="#template"></use><use x="13" y="31" xlink:href="#template"></use><use x="15" y="31" xlink:href="#template"></use><use x="16" y="31" xlink:href="#template"></use><use x="20" y="31" xlink:href="#template"></use><use x="21" y="31" xlink:href="#template"></use><use x="22" y="31" xlink:href="#template"></use><use x="26" y="31" xlink:href="#template"></use><use x="27" y="31" xlink:href="#template"></use><use x="28" y="31" xlink:href="#template"></use><use x="29" y="31" xlink:href="#template"></use><use x="31" y="31" xlink:href="#template"></use><use x="32" y="31" xlink:href="#template"></use><use x="33" y="31" xlink:href="#template"></use><use x="37" y="31" xlink:href="#template"></use><use x="40" y="31" xlink:href="#template"></use><use x="0" y="32" xlink:href="#template"></use><use x="1" y="32" xlink:href="#template"></use><use x="4" y="32" xlink:href="#template"></use><use x="6" y="32" xlink:href="#template"></use><use x="7" y="32" xlink:href="#template"></use><use x="8" y="32" xlink:href="#template"></use><use x="9" y="32" xlink:href="#template"></use><use x="11" y="32" xlink:href="#template"></use><use x="16" y="32" xlink:href="#template"></use><use x="24" y="32" xlink:href="#template"></use><use x="26" y="32" xlink:href="#template"></use><use x="29" y="32" xlink:href="#template"></use><use x="32" y="32" xlink:href="#template"></use><use x="33" y="32" xlink:href="#template"></use><use x="34" y="32" xlink:href="#template"></use><use x="35" y="32" xlink:href="#template"></use><use x="36" y="32" xlink:href="#template"></use><use x="37" y="32" xlink:href="#template"></use><use x="39" y="32" xlink:href="#template"></use><use x="40" y="32" xlink:href="#template"></use><use x="8" y="33" xlink:href="#template"></use><use x="9" y="33" xlink:href="#template"></use><use x="12" y="33" xlink:href="#template"></use><use x="13" y="33" xlink:href="#template"></use><use x="16" y="33" xlink:href="#template"></use><use x="17" y="33" xlink:href="#template"></use><use x="19" y="33" xlink:href="#template"></use><use x="23" y="33" xlink:href="#template"></use><use x="24" y="33" xlink:href="#template"></use><use x="25" y="33" xlink:href="#template"></use><use x="27" y="33" xlink:href="#template"></use><use x="28" y="33" xlink:href="#template"></use><use x="29" y="33" xlink:href="#template"></use><use x="30" y="33" xlink:href="#template"></use><use x="31" y="33" xlink:href="#template"></use><use x="32" y="33" xlink:href="#template"></use><use x="36" y="33" xlink:href="#template"></use><use x="38" y="33" xlink:href="#template"></use><use x="40" y="33" xlink:href="#template"></use><use x="0" y="34" xlink:href="#template"></use><use x="1" y="34" xlink:href="#template"></use><use x="2" y="34" xlink:href="#template"></use><use x="3" y="34" xlink:href="#template"></use><use x="4" y="34" xlink:href="#template"></use><use x="5" y="34" xlink:href="#template"></use><use x="6" y="34" xlink:href="#template"></use><use x="8" y="34" xlink:href="#template"></use><use x="9" y="34" xlink:href="#template"></use><use x="12" y="34" xlink:href="#template"></use><use x="13" y="34" xlink:href="#template"></use><use x="16" y="34" xlink:href="#template"></use><use x="17" y="34" xlink:href="#template"></use><use x="19" y="34" xlink:href="#template"></use><use x="24" y="34" xlink:href="#template"></use><use x="25" y="34" xlink:href="#template"></use><use x="26" y="34" xlink:href="#template"></use><use x="27" y="34" xlink:href="#template"></use><use x="30" y="34" xlink:href="#template"></use><use x="31" y="34" xlink:href="#template"></use><use x="32" y="34" xlink:href="#template"></use><use x="34" y="34" xlink:href="#template"></use><use x="36" y="34" xlink:href="#template"></use><use x="40" y="34" xlink:href="#template"></use><use x="0" y="35" xlink:href="#template"></use><use x="6" y="35" xlink:href="#template"></use><use x="8" y="35" xlink:href="#template"></use><use x="9" y="35" xlink:href="#template"></use><use x="10" y="35" xlink:href="#template"></use><use x="13" y="35" xlink:href="#template"></use><use x="16" y="35" xlink:href="#template"></use><use x="18" y="35" xlink:href="#template"></use><use x="19" y="35" xlink:href="#template"></use><use x="20" y="35" xlink:href="#template"></use><use x="21" y="35" xlink:href="#template"></use><use x="24" y="35" xlink:href="#template"></use><use x="25" y="35" xlink:href="#template"></use><use x="27" y="35" xlink:href="#template"></use><use x="28" y="35" xlink:href="#template"></use><use x="31" y="35" xlink:href="#template"></use><use x="32" y="35" xlink:href="#template"></use><use x="36" y="35" xlink:href="#template"></use><use x="37" y="35" xlink:href="#template"></use><use x="40" y="35" xlink:href="#template"></use><use x="0" y="36" xlink:href="#template"></use><use x="2" y="36" xlink:href="#template"></use><use x="3" y="36" xlink:href="#template"></use><use x="4" y="36" xlink:href="#template"></use><use x="6" y="36" xlink:href="#template"></use><use x="8" y="36" xlink:href="#template"></use><use x="9" y="36" xlink:href="#template"></use><use x="10" y="36" xlink:href="#template"></use><use x="12" y="36" xlink:href="#template"></use><use x="13" y="36" xlink:href="#template"></use><use x="18" y="36" xlink:href="#template"></use><use x="19" y="36" xlink:href="#template"></use><use x="20" y="36" xlink:href="#template"></use><use x="21" y="36" xlink:href="#template"></use><use x="22" y="36" xlink:href="#template"></use><use x="25" y="36" xlink:href="#template"></use><use x="27" y="36" xlink:href="#template"></use><use x="31" y="36" xlink:href="#template"></use><use x="32" y="36" xlink:href="#template"></use><use x="33" y="36" xlink:href="#template"></use><use x="34" y="36" xlink:href="#template"></use><use x="35" y="36" xlink:href="#template"></use><use x="36" y="36" xlink:href="#template"></use><use x="37" y="36" xlink:href="#template"></use><use x="40" y="36" xlink:href="#template"></use><use x="0" y="37" xlink:href="#template"></use><use x="2" y="37" xlink:href="#template"></use><use x="3" y="37" xlink:href="#template"></use><use x="4" y="37" xlink:href="#template"></use><use x="6" y="37" xlink:href="#template"></use><use x="9" y="37" xlink:href="#template"></use><use x="11" y="37" xlink:href="#template"></use><use x="13" y="37" xlink:href="#template"></use><use x="14" y="37" xlink:href="#template"></use><use x="15" y="37" xlink:href="#template"></use><use x="16" y="37" xlink:href="#template"></use><use x="17" y="37" xlink:href="#template"></use><use x="18" y="37" xlink:href="#template"></use><use x="20" y="37" xlink:href="#template"></use><use x="21" y="37" xlink:href="#template"></use><use x="22" y="37" xlink:href="#template"></use><use x="23" y="37" xlink:href="#template"></use><use x="24" y="37" xlink:href="#template"></use><use x="26" y="37" xlink:href="#template"></use><use x="27" y="37" xlink:href="#template"></use><use x="28" y="37" xlink:href="#template"></use><use x="30" y="37" xlink:href="#template"></use><use x="32" y="37" xlink:href="#template"></use><use x="35" y="37" xlink:href="#template"></use><use x="40" y="37" xlink:href="#template"></use><use x="0" y="38" xlink:href="#template"></use><use x="2" y="38" xlink:href="#template"></use><use x="3" y="38" xlink:href="#template"></use><use x="4" y="38" xlink:href="#template"></use><use x="6" y="38" xlink:href="#template"></use><use x="9" y="38" xlink:href="#template"></use><use x="11" y="38" xlink:href="#template"></use><use x="13" y="38" xlink:href="#template"></use><use x="14" y="38" xlink:href="#template"></use><use x="17" y="38" xlink:href="#template"></use><use x="18" y="38" xlink:href="#template"></use><use x="19" y="38" xlink:href="#template"></use><use x="20" y="38" xlink:href="#template"></use><use x="22" y="38" xlink:href="#template"></use><use x="23" y="38" xlink:href="#template"></use><use x="24" y="38" xlink:href="#template"></use><use x="25" y="38" xlink:href="#template"></use><use x="26" y="38" xlink:href="#template"></use><use x="27" y="38" xlink:href="#template"></use><use x="30" y="38" xlink:href="#template"></use><use x="31" y="38" xlink:href="#template"></use><use x="32" y="38" xlink:href="#template"></use><use x="33" y="38" xlink:href="#template"></use><use x="38" y="38" xlink:href="#template"></use><use x="39" y="38" xlink:href="#template"></use><use x="40" y="38" xlink:href="#template"></use><use x="0" y="39" xlink:href="#template"></use><use x="6" y="39" xlink:href="#template"></use><use x="9" y="39" xlink:href="#template"></use><use x="12" y="39" xlink:href="#template"></use><use x="13" y="39" xlink:href="#template"></use><use x="17" y="39" xlink:href="#template"></use><use x="18" y="39" xlink:href="#template"></use><use x="21" y="39" xlink:href="#template"></use><use x="22" y="39" xlink:href="#template"></use><use x="27" y="39" xlink:href="#template"></use><use x="28" y="39" xlink:href="#template"></use><use x="29" y="39" xlink:href="#template"></use><use x="30" y="39" xlink:href="#template"></use><use x="32" y="39" xlink:href="#template"></use><use x="35" y="39" xlink:href="#template"></use><use x="37" y="39" xlink:href="#template"></use><use x="38" y="39" xlink:href="#template"></use><use x="39" y="39" xlink:href="#template"></use><use x="40" y="39" xlink:href="#template"></use><use x="0" y="40" xlink:href="#template"></use><use x="1" y="40" xlink:href="#template"></use><use x="2" y="40" xlink:href="#template"></use><use x="3" y="40" xlink:href="#template"></use><use x="4" y="40" xlink:href="#template"></use><use x="5" y="40" xlink:href="#template"></use><use x="6" y="40" xlink:href="#template"></use><use x="11" y="40" xlink:href="#template"></use><use x="12" y="40" xlink:href="#template"></use><use x="13" y="40" xlink:href="#template"></use><use x="14" y="40" xlink:href="#template"></use><use x="15" y="40" xlink:href="#template"></use><use x="16" y="40" xlink:href="#template"></use><use x="20" y="40" xlink:href="#template"></use><use x="23" y="40" xlink:href="#template"></use><use x="27" y="40" xlink:href="#template"></use><use x="29" y="40" xlink:href="#template"></use><use x="30" y="40" xlink:href="#template"></use><use x="32" y="40" xlink:href="#template"></use><use x="34" y="40" xlink:href="#template"></use><use x="35" y="40" xlink:href="#template"></use><use x="36" y="40" xlink:href="#template"></use><use x="37" y="40" xlink:href="#template"></use><use x="38" y="40" xlink:href="#template"></use><use x="39" y="40" xlink:href="#template"></use></svg></g>
  </svg>